%
M48
M72
T01C0.0120
T02C0.0150
T03C0.0200
T04C0.0256
T05C0.0315
T06C0.0400
T07C0.0800
T08C0.1300
%
T01
X10843Y11293
X11893Y11393
X12343Y12243
X11893Y12893
X10893Y12893
X15993Y16893
X17193Y17993
X17393Y18893
X17143Y19693
X18393Y17893
X18893Y17893
X19504Y17063
X19743Y16193
X21393Y16393
X23393Y15393
X25393Y14393
X25893Y11893
X26893Y11893
X27893Y11893
X27888Y13488
X28293Y15843
X27893Y16893
X26893Y16693
X27893Y17893
X29893Y17893
X29893Y16893
X30893Y15893
X31393Y15893
X31893Y15893
X32393Y15893
X32693Y15893
X33093Y15893
X32893Y19893
X31393Y19893
X31893Y20843
X32443Y21023
X32762Y21173
X32643Y21493
X29943Y22593
X31306Y25706
X31509Y25927
X34393Y24393
X37393Y26893
X37693Y27113
X40393Y27533
X40743Y24749
X39993Y24219
X40043Y23438
X41193Y20543
X41443Y20043
X41443Y18243
X43443Y17893
X44128Y17393
X44643Y18343
X44643Y19243
X45093Y19243
X43843Y20043
X46654Y20256
X47893Y20393
X48199Y20399
X48419Y20603
X48644Y20404
X48564Y21143
X47593Y21393
X47243Y21393
X45393Y22393
X44343Y23143
X46346Y24743
X46843Y24243
X47066Y23993
X46198Y25511
X45993Y25731
X45813Y27842
X45897Y28142
X46081Y28381
X46243Y28643
X45393Y30893
X44893Y31393
X47143Y34193
X47893Y34343
X48293Y35893
X49393Y35093
X48993Y37493
X48443Y39293
X48643Y39593
X48993Y40393
X49393Y40393
X48644Y41604
X48419Y41803
X48199Y41599
X47893Y41593
X48564Y42343
X47593Y42593
X47243Y42593
X45393Y43593
X44343Y44343
X46346Y45943
X46843Y45443
X47066Y45193
X46198Y46711
X45993Y46931
X45813Y49042
X45897Y49342
X46081Y49581
X46243Y49843
X45393Y52093
X44893Y52593
X47143Y55393
X47893Y55543
X49393Y56293
X48293Y57093
X48993Y58693
X48443Y60493
X48643Y60793
X48993Y61593
X49393Y61593
X47748Y61043
X47463Y60793
X46693Y61593
X46654Y62656
X47893Y62793
X48199Y62799
X48419Y63003
X48644Y62804
X48564Y63543
X47593Y63793
X47243Y63793
X45393Y64793
X44343Y65543
X46843Y66643
X47066Y66393
X46346Y67143
X46198Y67911
X45993Y68131
X45813Y70242
X45897Y70542
X46081Y70781
X46243Y71043
X45393Y73293
X44893Y73793
X40393Y69933
X37693Y69513
X37393Y69293
X39993Y66619
X40043Y65838
X40743Y67149
X41193Y62943
X41443Y62443
X41443Y60643
X43443Y60293
X44128Y59793
X44643Y60743
X44643Y61643
X45093Y61643
X43843Y62443
X46843Y59093
X52093Y55293
X53093Y55293
X53543Y54643
X53093Y53793
X52043Y53693
X53593Y51593
X55093Y51593
X54593Y49343
X54693Y48543
X54743Y47893
X56093Y48343
X56593Y48593
X56093Y49293
X58293Y49343
X58243Y47543
X59843Y48093
X60593Y48093
X60593Y48593
X62043Y47593
X63093Y49093
X62593Y49593
X64093Y49093
X64993Y49593
X64593Y47093
X67593Y47293
X68593Y48593
X72506Y46906
X72709Y47127
X75593Y45593
X78593Y48093
X78893Y48313
X81593Y48733
X81943Y45949
X81193Y45419
X81243Y44638
X82393Y41743
X82643Y41243
X82643Y39443
X84643Y39093
X85328Y38593
X85843Y39543
X85843Y40443
X86293Y40443
X85043Y41243
X86593Y43593
X85543Y44343
X87546Y45943
X88043Y45443
X88266Y45193
X87398Y46711
X87193Y46931
X87013Y49042
X87097Y49342
X87281Y49581
X87443Y49843
X86593Y52093
X86093Y52593
X88343Y55393
X89093Y55543
X90593Y56293
X89493Y57093
X90193Y58693
X89643Y60493
X89843Y60793
X90193Y61593
X90593Y61593
X89844Y62804
X89619Y63003
X89399Y62799
X89093Y62793
X89764Y63543
X88793Y63793
X88443Y63793
X87854Y62656
X87893Y61593
X88663Y60793
X88948Y61043
X88043Y59093
X85843Y60743
X85843Y61643
X86293Y61643
X85043Y62443
X84643Y60293
X85328Y59793
X82643Y60643
X82643Y62443
X82393Y62943
X85543Y65543
X86593Y64793
X88266Y66393
X88043Y66643
X87546Y67143
X87398Y67911
X87193Y68131
X87013Y70242
X87097Y70542
X87281Y70781
X87443Y71043
X86593Y73293
X86093Y73793
X81593Y69933
X78893Y69513
X78593Y69293
X81193Y66619
X81243Y65838
X81943Y67149
X75593Y66793
X72709Y68327
X72506Y68106
X71143Y64993
X73843Y63893
X73962Y63573
X73643Y63423
X73093Y63243
X72593Y62293
X74093Y62293
X71093Y60293
X71093Y59293
X72093Y58293
X72593Y58293
X73093Y58293
X73593Y58293
X73893Y58293
X74293Y58293
X69493Y58243
X69093Y59293
X68093Y59093
X69093Y60293
X66593Y56793
X64593Y57793
X62593Y58793
X60943Y58593
X60704Y59463
X60093Y60293
X59593Y60293
X58393Y60393
X58593Y61293
X58343Y62093
X56593Y63793
X57093Y65293
X57393Y66293
X58093Y66293
X58443Y66643
X58793Y66643
X60093Y67543
X59843Y69293
X60593Y69293
X60593Y69793
X62043Y68793
X63093Y70293
X62593Y70793
X64093Y70293
X64993Y70793
X64593Y68293
X67593Y68493
X68593Y69793
X62493Y73243
X61493Y73243
X60493Y73793
X59593Y73293
X58293Y70543
X58243Y68743
X56593Y69793
X56093Y69543
X56093Y70493
X54593Y70543
X54693Y69743
X54743Y69093
X54743Y68193
X54718Y67618
X54243Y66743
X53193Y67443
X53093Y68093
X53443Y68943
X53143Y70243
X52543Y70243
X53593Y72793
X55093Y72793
X52493Y67343
X52093Y66293
X51943Y63743
X52593Y62598
X52593Y61848
X52593Y61098
X53593Y60848
X53593Y62848
X57193Y59293
X61043Y61193
X61293Y63793
X63088Y55888
X60093Y53793
X60493Y52593
X59593Y52093
X61493Y52043
X62493Y52043
X67093Y54293
X68093Y54293
X69093Y54293
X69088Y55888
X60093Y46343
X58793Y45443
X58443Y45443
X58093Y45093
X57393Y45093
X57093Y44093
X56593Y42593
X58343Y40893
X58593Y40093
X58393Y39193
X59593Y39093
X60093Y39093
X60704Y38263
X60943Y37393
X62593Y37593
X64593Y36593
X66593Y35593
X69088Y34688
X69093Y33093
X68093Y33093
X67093Y33093
X63088Y34688
X60093Y32593
X60493Y31393
X59593Y30893
X61493Y30843
X62493Y30843
X62593Y28393
X63093Y27893
X64093Y27893
X64993Y28393
X64593Y25893
X62043Y26393
X60593Y26893
X60593Y27393
X59843Y26893
X58243Y26343
X58293Y28143
X56593Y27393
X56093Y27143
X56093Y28093
X54593Y28143
X54693Y27343
X54743Y26693
X54743Y25793
X54718Y25218
X54243Y24343
X53193Y25043
X53093Y25693
X53443Y26543
X53143Y27843
X52543Y27843
X53593Y30393
X55093Y30393
X53093Y32593
X53543Y33443
X53093Y34093
X52093Y34093
X52043Y32493
X46843Y37893
X47463Y39593
X47748Y39843
X46693Y40393
X46654Y41456
X45093Y40443
X44643Y40443
X44643Y39543
X44128Y38593
X43443Y39093
X41443Y39443
X41443Y41243
X41193Y41743
X43843Y41243
X40043Y44638
X39993Y45419
X40743Y45949
X37693Y48313
X37393Y48093
X40393Y48733
X34393Y45593
X31509Y47127
X31306Y46906
X29943Y43793
X31893Y42043
X32443Y42223
X32762Y42373
X32643Y42693
X32893Y41093
X31393Y41093
X29893Y39093
X29893Y38093
X30893Y37093
X31393Y37093
X31893Y37093
X32393Y37093
X32693Y37093
X33093Y37093
X28293Y37043
X27893Y38093
X27893Y39093
X26893Y37893
X25393Y35593
X23393Y36593
X21393Y37593
X19743Y37393
X19504Y38263
X18893Y39093
X18393Y39093
X17193Y39193
X17393Y40093
X17143Y40893
X15393Y42593
X15893Y44093
X16193Y45093
X16893Y45093
X17243Y45443
X17593Y45443
X18893Y46343
X18643Y48093
X19393Y48093
X19393Y48593
X20843Y47593
X21893Y49093
X21393Y49593
X22893Y49093
X23793Y49593
X23393Y47093
X26393Y47293
X27393Y48593
X21293Y52043
X20293Y52043
X19293Y52593
X18393Y52093
X18893Y53793
X21888Y55888
X23393Y57793
X21393Y58793
X19743Y58593
X19504Y59463
X18893Y60293
X18393Y60293
X17193Y60393
X17393Y61293
X17143Y62093
X15393Y63793
X15893Y65293
X16193Y66293
X16893Y66293
X17243Y66643
X17593Y66643
X18893Y67543
X18643Y69293
X19393Y69293
X19393Y69793
X20843Y68793
X21893Y70293
X21393Y70793
X22893Y70293
X23793Y70793
X23393Y68293
X26393Y68493
X27393Y69793
X31306Y68106
X31509Y68327
X34393Y66793
X32643Y63893
X32762Y63573
X32443Y63423
X31893Y63243
X31393Y62293
X32893Y62293
X29893Y60293
X29893Y59293
X30893Y58293
X31393Y58293
X31893Y58293
X32393Y58293
X32693Y58293
X33093Y58293
X28293Y58243
X27893Y59293
X26893Y59093
X27893Y60293
X25393Y56793
X25893Y54293
X26893Y54293
X27893Y54293
X27888Y55888
X19843Y61193
X20093Y63793
X15993Y59293
X12393Y60848
X11393Y61098
X11393Y61848
X11393Y62598
X12393Y62848
X10743Y63743
X10893Y66293
X11293Y67343
X11993Y67443
X11893Y68093
X12243Y68943
X13543Y69093
X13493Y69743
X13393Y70543
X14893Y70493
X15393Y69793
X14893Y69543
X13543Y68193
X13518Y67618
X13043Y66743
X17043Y68743
X17093Y70543
X13893Y72793
X12393Y72793
X11943Y70243
X11343Y70243
X18393Y73293
X19293Y73793
X20293Y73243
X21293Y73243
X29943Y64993
X49143Y66193
X52543Y49043
X53143Y49043
X53443Y47743
X53093Y46893
X53193Y46243
X52493Y46143
X52093Y45093
X54243Y45543
X54718Y46418
X54743Y46993
X51943Y42543
X52593Y41398
X52593Y40648
X52593Y39898
X53593Y39648
X53593Y41648
X57193Y38093
X61043Y39993
X61293Y42593
X68093Y37893
X69093Y38093
X69093Y39093
X71093Y39093
X71093Y38093
X72093Y37093
X72593Y37093
X73093Y37093
X73593Y37093
X73893Y37093
X74293Y37093
X74093Y41093
X73643Y42223
X73962Y42373
X73843Y42693
X73093Y42043
X72593Y41093
X71143Y43793
X69493Y37043
X68593Y27393
X67593Y26093
X71143Y22593
X73093Y20843
X73643Y21023
X73962Y21173
X73843Y21493
X74093Y19893
X72593Y19893
X71093Y17893
X71093Y16893
X72093Y15893
X72593Y15893
X73093Y15893
X73593Y15893
X73893Y15893
X74293Y15893
X69493Y15843
X69093Y16893
X68093Y16693
X69093Y17893
X66593Y14393
X64593Y15393
X62593Y16393
X60943Y16193
X60704Y17063
X60093Y17893
X59593Y17893
X58393Y17993
X58593Y18893
X58343Y19693
X56593Y21393
X57093Y22893
X57393Y23893
X58093Y23893
X58443Y24243
X58793Y24243
X60093Y25143
X61293Y21393
X61043Y18793
X57193Y16893
X53593Y18448
X52593Y18698
X52593Y19448
X52593Y20198
X53593Y20448
X51943Y21343
X52093Y23893
X52493Y24943
X49143Y23793
X48993Y19193
X49393Y19193
X48643Y18393
X48443Y18093
X47748Y18643
X47463Y18393
X46693Y19193
X46843Y16693
X48993Y16293
X48293Y14693
X49393Y13893
X47893Y13143
X47143Y12993
X52093Y12893
X53093Y12893
X53543Y12243
X53093Y11393
X52043Y11293
X60093Y11393
X63088Y13488
X67093Y11893
X68093Y11893
X69093Y11893
X69088Y13488
X82643Y18243
X82643Y20043
X82393Y20543
X85043Y20043
X85843Y19243
X86293Y19243
X85843Y18343
X85328Y17393
X84643Y17893
X87893Y19193
X88663Y18393
X88948Y18643
X89643Y18093
X89843Y18393
X90193Y19193
X90593Y19193
X89844Y20404
X89619Y20603
X89399Y20399
X89093Y20393
X89764Y21143
X88793Y21393
X88443Y21393
X87854Y20256
X86593Y22393
X85543Y23143
X87546Y24743
X88043Y24243
X88266Y23993
X87398Y25511
X87193Y25731
X87013Y27842
X87097Y28142
X87281Y28381
X87443Y28643
X86593Y30893
X86093Y31393
X88343Y34193
X89093Y34343
X89493Y35893
X90593Y35093
X90193Y37493
X89643Y39293
X89843Y39593
X90193Y40393
X90593Y40393
X89844Y41604
X89619Y41803
X89399Y41599
X89093Y41593
X89764Y42343
X88793Y42593
X88443Y42593
X87854Y41456
X87893Y40393
X88663Y39593
X88948Y39843
X88043Y37893
X90343Y44993
X81593Y27533
X78893Y27113
X78593Y26893
X81193Y24219
X81243Y23438
X81943Y24749
X75593Y24393
X72709Y25927
X72506Y25706
X88043Y16693
X90193Y16293
X89493Y14693
X90593Y13893
X89093Y13143
X88343Y12993
X90343Y23793
X49143Y44993
X27888Y34688
X27893Y33093
X26893Y33093
X25893Y33093
X21888Y34688
X18893Y32593
X19293Y31393
X18393Y30893
X20293Y30843
X21293Y30843
X21393Y28393
X21893Y27893
X22893Y27893
X23793Y28393
X23393Y25893
X20843Y26393
X19393Y26893
X19393Y27393
X18643Y26893
X17043Y26343
X17093Y28143
X15393Y27393
X14893Y27143
X14893Y28093
X13393Y28143
X13493Y27343
X13543Y26693
X13543Y25793
X13518Y25218
X13043Y24343
X11993Y25043
X11893Y25693
X12243Y26543
X11943Y27843
X11343Y27843
X12393Y30393
X13893Y30393
X11893Y32593
X12343Y33443
X11893Y34093
X10893Y34093
X10843Y32493
X15993Y38093
X12393Y39648
X11393Y39898
X11393Y40648
X11393Y41398
X12393Y41648
X10743Y42543
X10893Y45093
X11293Y46143
X11993Y46243
X11893Y46893
X12243Y47743
X13543Y47893
X13493Y48543
X13393Y49343
X14893Y49293
X15393Y48593
X14893Y48343
X13543Y46993
X13518Y46418
X13043Y45543
X11943Y49043
X11343Y49043
X12393Y51593
X13893Y51593
X11893Y53793
X12343Y54643
X11893Y55293
X10893Y55293
X10843Y53693
X17093Y49343
X17043Y47543
X20093Y42593
X19843Y39993
X27393Y27393
X26393Y26093
X20093Y21393
X19843Y18793
X15393Y21393
X15893Y22893
X16193Y23893
X16893Y23893
X17243Y24243
X17593Y24243
X18893Y25143
X12393Y20448
X11393Y20198
X11393Y19448
X11393Y18698
X12393Y18448
X10743Y21343
X10893Y23893
X11293Y24943
X21888Y13488
X18893Y11393
X90343Y66193
T02
X87093Y64293
X87093Y63793
X87084Y63002
X86643Y62893
X88443Y62743
X87300Y61293
X86593Y61293
X74393Y62743
X70793Y62809
X61093Y71453
X47243Y62743
X45884Y63002
X45443Y62893
X45893Y63793
X45893Y64293
X46100Y61293
X45393Y61293
X33193Y62743
X29593Y62809
X19893Y71453
X19893Y50253
X29593Y41609
X33193Y41543
X45443Y41693
X45884Y41802
X45893Y42593
X45893Y43093
X47243Y41543
X46100Y40093
X45393Y40093
X61093Y50253
X70793Y41609
X74393Y41543
X86643Y41693
X87084Y41802
X87093Y42593
X87093Y43093
X88443Y41543
X87300Y40093
X86593Y40093
X87093Y21893
X87093Y21393
X87084Y20602
X86643Y20493
X88443Y20343
X87300Y18893
X86593Y18893
X74393Y20343
X70793Y20409
X61093Y29053
X47243Y20343
X45884Y20602
X45443Y20493
X45893Y21393
X45893Y21893
X46100Y18893
X45393Y18893
X33193Y20343
X29593Y20409
X19893Y29053
T03
X27893Y24843
X27893Y24343
X28393Y24343
X28393Y24843
X28893Y24843
X28893Y24343
X29393Y24343
X29393Y24843
X29893Y24843
X29893Y24343
X29893Y45543
X29393Y45543
X28893Y45543
X28393Y45543
X27893Y45543
X27893Y46043
X28393Y46043
X28893Y46043
X29393Y46043
X29893Y46043
X29893Y66743
X29393Y66743
X28893Y66743
X28393Y66743
X27893Y66743
X27893Y67243
X28393Y67243
X28893Y67243
X29393Y67243
X29893Y67243
X69093Y67243
X69093Y66743
X69593Y66743
X69593Y67243
X70093Y67243
X70093Y66743
X70593Y66743
X70593Y67243
X71093Y67243
X71093Y66743
X71093Y46043
X71093Y45543
X70593Y45543
X70093Y45543
X69593Y45543
X69093Y45543
X69093Y46043
X69593Y46043
X70093Y46043
X70593Y46043
X70593Y24843
X70093Y24843
X70093Y24343
X69593Y24343
X69093Y24343
X69093Y24843
X69593Y24843
X70593Y24343
X71093Y24343
X71093Y24843
T04
X53524Y25256
X53524Y27531
X53524Y46456
X53524Y48731
X53524Y67656
X53524Y69931
X12324Y69931
X12324Y67656
X12324Y48731
X12324Y46456
X12324Y27531
X12324Y25256
T05
X48787Y35093
X48787Y13893
X89987Y13893
X89987Y35093
X89987Y56293
X48787Y56293
T06
X48893Y52093
X48893Y51093
X48893Y50093
X48893Y49093
X48893Y48093
X55593Y51093
X56593Y51093
X62593Y61293
X63593Y61293
X56593Y72293
X55593Y72293
X48893Y72293
X48893Y71293
X48893Y70293
X48893Y69293
X48893Y73293
X22393Y61293
X21393Y61293
X15393Y51093
X14393Y51093
X21393Y40093
X22393Y40093
X15393Y29893
X14393Y29893
X21393Y18893
X22393Y18893
X48893Y26893
X48893Y27893
X48893Y28893
X48893Y29893
X48893Y30893
X55593Y29893
X56593Y29893
X62593Y40093
X63593Y40093
X90093Y48093
X90093Y49093
X90093Y50093
X90093Y51093
X90093Y52093
X90093Y69293
X90093Y70293
X90093Y71293
X90093Y72293
X90093Y73293
X90093Y30893
X90093Y29893
X90093Y28893
X90093Y27893
X90093Y26893
X63593Y18893
X62593Y18893
X15393Y72293
X14393Y72293
T07
X12993Y56693
X11193Y56693
X11193Y35493
X12993Y35493
X12993Y14293
X11193Y14293
X52393Y14293
X54193Y14293
X54193Y35493
X52393Y35493
X52393Y56693
X54193Y56693
T08
X57093Y54293
X57593Y52093
X48393Y54293
X46393Y52093
X36393Y56293
X36393Y46093
X36393Y35093
X46393Y30893
X48393Y33093
X57093Y33093
X57593Y30893
X77593Y35093
X87593Y30893
X89593Y33093
X77593Y24893
X77593Y13893
X89593Y11893
X57093Y11893
X48393Y11893
X36393Y13893
X36393Y24893
X16393Y30893
X15893Y33093
X16393Y52093
X15893Y54293
X36393Y67293
X46393Y73293
X57593Y73293
X77593Y67293
X87593Y73293
X77593Y56293
X87593Y52093
X89593Y54293
X77593Y46093
X16393Y73293
X15893Y11893
M30
