M48
;GenerationSoftware,Autodesk,EAGLE,9.4.2*%
;CreationDate,2019-07-03T20:35:31Z*%
FMAT,2
ICI,OFF
METRIC,TZ,000.000
T7C0.305
T6C0.381
T5C0.650
T4C0.800
T3C1.016
T2C2.032
T1C3.302
%
G90
M71
T1
X197866Y112268
X202946Y64008
X13970Y5080
X66040Y10160
X66040Y38100
X15240Y53340
X96520Y64008
X91440Y112268
X120396Y64008
X172466Y69088
X96520Y5080
X91440Y53340
X120396Y5080
X172466Y10160
X172466Y38100
X121666Y53340
X172466Y97028
X121666Y112268
X202946Y5080
X197866Y53340
X13970Y64008
X66040Y69088
X66040Y97028
X15240Y112268
T2
X6604Y11176
X2032Y70104
X6604Y70104
X113030Y70104
X2032Y11176
X108458Y11176
X113030Y11176
X108458Y70104
T3
X130302Y116078
X132842Y116078
X135382Y116078
X137922Y116078
X140462Y116078
X143002Y116078
X145542Y116078
X97790Y112268
X148082Y116078
X152146Y60198
X149606Y60198
X147066Y60198
X144526Y60198
X141986Y60198
X139446Y60198
X136906Y60198
X134366Y60198
X157226Y60198
X159766Y60198
X162306Y60198
X164846Y60198
X167386Y60198
X169926Y60198
X172466Y60198
X175006Y60198
X169926Y116078
X167386Y116078
X164846Y116078
X162306Y116078
X159766Y116078
X157226Y116078
X154686Y116078
X152146Y116078
X192786Y116078
X190246Y116078
X187706Y116078
X10160Y50800
X185166Y116078
X182626Y116078
X180086Y116078
X177546Y116078
X175006Y116078
X180086Y60198
X182626Y60198
X185166Y60198
X187706Y60198
X190246Y60198
X192786Y60198
X195326Y60198
X33020Y21590
X30480Y21590
X12700Y50800
X197866Y60198
X97790Y53340
X97790Y50800
X97790Y48260
X97790Y45720
X97790Y43180
X100330Y43180
X100330Y45720
X100330Y48260
X100330Y50800
X100330Y53340
X18796Y57150
X21336Y57150
X23876Y57150
X26416Y57150
X28956Y57150
X31496Y57150
X34036Y57150
X36576Y57150
X39116Y57150
X41656Y57150
X45720Y1270
X43180Y1270
X40640Y1270
X38100Y1270
X35560Y1270
X33020Y1270
X30480Y1270
X27940Y1270
X50800Y1270
X53340Y1270
X55880Y1270
X58420Y1270
X60960Y1270
X63500Y1270
X66040Y1270
X68580Y1270
X63500Y57150
X60960Y57150
X58420Y57150
X55880Y57150
X53340Y57150
X50800Y57150
X48260Y57150
X45720Y57150
X86360Y57150
X83820Y57150
X81280Y57150
X78740Y57150
X76200Y57150
X73660Y57150
X71120Y57150
X68580Y57150
X73660Y1270
X76200Y1270
X78740Y1270
X81280Y1270
X83820Y1270
X86360Y1270
X88900Y1270
X91440Y1270
X139446Y21590
X136906Y21590
X119126Y50800
X116586Y50800
X204216Y53340
X204216Y50800
X204216Y48260
X204216Y45720
X204216Y43180
X206756Y43180
X206756Y45720
X206756Y48260
X206756Y50800
X206756Y53340
X125222Y57150
X127762Y57150
X130302Y57150
X132842Y57150
X135382Y57150
X137922Y57150
X140462Y57150
X143002Y57150
X145542Y57150
X148082Y57150
X152146Y1270
X149606Y1270
X147066Y1270
X144526Y1270
X141986Y1270
X139446Y1270
X136906Y1270
X134366Y1270
X157226Y1270
X159766Y1270
X162306Y1270
X164846Y1270
X167386Y1270
X169926Y1270
X172466Y1270
X175006Y1270
X169926Y57150
X167386Y57150
X164846Y57150
X162306Y57150
X159766Y57150
X157226Y57150
X154686Y57150
X152146Y57150
X192786Y57150
X190246Y57150
X187706Y57150
X185166Y57150
X182626Y57150
X180086Y57150
X177546Y57150
X175006Y57150
X180086Y1270
X182626Y1270
X185166Y1270
X187706Y1270
X190246Y1270
X192786Y1270
X195326Y1270
X197866Y1270
X33020Y80518
X30480Y80518
X12700Y109728
X10160Y109728
X97790Y109728
X97790Y107188
X97790Y104648
X97790Y102108
X100330Y102108
X100330Y104648
X100330Y107188
X100330Y109728
X100330Y112268
X18796Y116078
X21336Y116078
X23876Y116078
X26416Y116078
X28956Y116078
X31496Y116078
X34036Y116078
X36576Y116078
X39116Y116078
X41656Y116078
X45720Y60198
X43180Y60198
X40640Y60198
X38100Y60198
X35560Y60198
X33020Y60198
X30480Y60198
X27940Y60198
X50800Y60198
X53340Y60198
X55880Y60198
X58420Y60198
X60960Y60198
X63500Y60198
X66040Y60198
X68580Y60198
X63500Y116078
X60960Y116078
X58420Y116078
X55880Y116078
X53340Y116078
X50800Y116078
X48260Y116078
X45720Y116078
X86360Y116078
X83820Y116078
X81280Y116078
X78740Y116078
X76200Y116078
X73660Y116078
X71120Y116078
X68580Y116078
X73660Y60198
X76200Y60198
X78740Y60198
X81280Y60198
X83820Y60198
X86360Y60198
X88900Y60198
X91440Y60198
X139446Y80518
X136906Y80518
X119126Y109728
X116586Y109728
X204216Y112268
X204216Y109728
X204216Y107188
X204216Y104648
X204216Y102108
X206756Y102108
X206756Y104648
X206756Y107188
X206756Y109728
X206756Y112268
X125222Y116078
X127762Y116078
T4
X97520Y10160
X203946Y10160
X97520Y69088
X203946Y69088
T5
X4905Y103728
X4905Y44800
X4905Y39020
X111331Y44800
X111331Y39020
X4905Y97948
X111331Y103728
X111331Y97948
T6
X93599Y26543
X57912Y26543
X90148Y27200
X57912Y85471
X195453Y26924
X90696Y81788
X196574Y27200
X24130Y48666
X88900Y81788
X24130Y107594
X90170Y89408
X90170Y88138
X90170Y29210
X90148Y86128
X200025Y85471
X164338Y85471
X197122Y81788
X195326Y81788
X130556Y107594
X196596Y89408
X196596Y88138
X195453Y85852
X196574Y86128
X164338Y26543
X196596Y30480
X93599Y85471
X130556Y48666
X90170Y30480
X197122Y22860
X89027Y85852
X90696Y22860
X196596Y29210
X88900Y22860
X89027Y26924
X195326Y22860
X200025Y26543
T7
X203584Y26698
X203581Y21590
X181737Y34404
X182626Y44806
X196393Y45589
X196604Y46351
X197073Y46959
X197485Y47625
X201676Y26670
X203381Y28575
X12700Y103378
X90944Y98598
X11430Y102743
X16510Y94488
X92583Y95377
X34036Y105918
X68580Y102108
X31750Y104648
X53635Y99654
X29210Y104648
X69215Y103048
X2540Y83197
X5080Y85737
X5080Y80657
X2540Y81292
X2540Y85102
X17272Y79502
X38100Y70358
X5080Y110998
X41910Y64008
X27686Y112141
X1270Y66548
X27940Y105918
X17780Y81788
X14224Y76708
X6731Y95631
X13970Y91948
X14732Y94488
X12700Y88138
X11430Y105156
X8890Y110998
X23749Y74930
X7620Y105283
X1270Y94488
X20320Y79248
X21590Y79248
X24003Y81534
X17145Y83820
X3810Y62738
X3810Y66548
X1143Y62484
X21590Y62738
X44450Y64008
X39370Y64008
X17399Y95377
X16891Y100711
X22860Y102108
X20955Y102108
X45466Y74041
X25146Y112141
X24638Y88138
X33020Y99568
X40640Y100076
X44450Y79248
X49530Y79248
X49657Y91186
X86233Y92583
X86995Y82677
X88138Y82677
X86995Y79248
X92202Y82550
X98044Y82550
X99060Y82550
X98044Y75184
X99060Y69088
X93345Y66802
X78740Y79248
X78867Y84709
X83947Y79248
X84963Y84709
X92102Y85250
X78232Y85979
X98425Y94234
X57150Y84328
X53340Y84328
X49530Y76708
X44450Y76708
X59690Y79248
X67310Y79248
X77470Y79248
X77470Y76708
X67310Y76708
X59690Y76708
X44450Y97028
X71882Y85979
X74041Y85979
X17018Y105283
X21590Y97663
X41910Y76200
X27940Y75438
X29197Y68059
X44437Y68059
X7874Y103251
X7937Y97853
X4953Y64897
X889Y88011
X2413Y104521
X3937Y104521
X3810Y99060
X4064Y97409
X2286Y97155
X4699Y101219
X8001Y99314
X8001Y101600
X33020Y72898
X22860Y103378
X66802Y85366
X35560Y103378
X36957Y85471
X88900Y90678
X77089Y96663
X60960Y95758
X74803Y95443
X87630Y113538
X93599Y88138
X94158Y80518
X22606Y113538
X88900Y112268
X94488Y88138
X94882Y81153
X20320Y112268
X56515Y88392
X55880Y74168
X68580Y86041
X68580Y88541
X93150Y94742
X74930Y81788
X76073Y85979
X90424Y99157
X73025Y86041
X78740Y92710
X73025Y81788
X74921Y92590
X95250Y67183
X96266Y71120
X26543Y100838
X91321Y96647
X18288Y95377
X92583Y76200
X85686Y77978
X23140Y77138
X57658Y74168
X56642Y74168
X54610Y86741
X52070Y74168
X53340Y74168
X56515Y29464
X54610Y74168
X56817Y87579
X96585Y86131
X12700Y44450
X96026Y85612
X96647Y79756
X97158Y85626
X97155Y80518
X75311Y93332
X76200Y103734
X90944Y39670
X89967Y104517
X11430Y43815
X90178Y105279
X16510Y35560
X90647Y105887
X92583Y36449
X91059Y106553
X95250Y85598
X96955Y87503
X119126Y103378
X197370Y98598
X117856Y102743
X122936Y94488
X199009Y95377
X140462Y105918
X175006Y102108
X138176Y104648
X160061Y99654
X135636Y104648
X175641Y103048
X108966Y83197
X111506Y85737
X111506Y80657
X108966Y81292
X108966Y85102
X123698Y79502
X144526Y70358
X111506Y110998
X148336Y64008
X134112Y112141
X107696Y66548
X134366Y105918
X124206Y81788
X120650Y76708
X113157Y95631
X120396Y91948
X121158Y94488
X119126Y88138
X117856Y105156
X115316Y110998
X130175Y74930
X114046Y105283
X107696Y94488
X126746Y79248
X128016Y79248
X130429Y81534
X123571Y83820
X110236Y62738
X110236Y66548
X107569Y62484
X128016Y62738
X150876Y64008
X145796Y64008
X123825Y95377
X123317Y100711
X129286Y102108
X127381Y102108
X151892Y74041
X131572Y112141
X131064Y88138
X139446Y99568
X147066Y100076
X150876Y79248
X155956Y79248
X156083Y91186
X192659Y92583
X193421Y82677
X194564Y82677
X193421Y79248
X198628Y82550
X204470Y82550
X205486Y82550
X204470Y75184
X205486Y69088
X199771Y66802
X185166Y79248
X185293Y84709
X190373Y79248
X191389Y84709
X198528Y85250
X184658Y85979
X204851Y94234
X163576Y84328
X159766Y84328
X155956Y76708
X150876Y76708
X166116Y79248
X173736Y79248
X183896Y79248
X183896Y76708
X173736Y76708
X166116Y76708
X150876Y97028
X178308Y85979
X180467Y85979
X123444Y105283
X128016Y97663
X148336Y76200
X134366Y75438
X135623Y68059
X150863Y68059
X114300Y103251
X114363Y97853
X111379Y64897
X107315Y88011
X108839Y104521
X110363Y104521
X110236Y99060
X110490Y97409
X108712Y97155
X111125Y101219
X114427Y99314
X114427Y101600
X139446Y72898
X129286Y103378
X34036Y46990
X68580Y43180
X173228Y85366
X141986Y103378
X143383Y85471
X195326Y90678
X183515Y96663
X167386Y95758
X181229Y95443
X194056Y113538
X200025Y88138
X200584Y80518
X129032Y113538
X195326Y112268
X200914Y88138
X201308Y81153
X126746Y112268
X162941Y88392
X162306Y74168
X175006Y86041
X175006Y88541
X199576Y94742
X181356Y81788
X182499Y85979
X196850Y99157
X179451Y86041
X185166Y92710
X179451Y81788
X181347Y92590
X201676Y67183
X202692Y71120
X132969Y100838
X197747Y96647
X124714Y95377
X199009Y76200
X192112Y77978
X129566Y77138
X164084Y74168
X31750Y45720
X163068Y74168
X53635Y40726
X161036Y86741
X158496Y74168
X159766Y74168
X162433Y87197
X161036Y74168
X163243Y87579
X203011Y86131
X29210Y45720
X202452Y85612
X203073Y79756
X203584Y85626
X203581Y80518
X181737Y93332
X182626Y103734
X69215Y44120
X196393Y104517
X2540Y24269
X196604Y105279
X5080Y26809
X197073Y105887
X5080Y21729
X197485Y106553
X201676Y85598
X203381Y87503
X2540Y22364
X2540Y26174
X17272Y20574
X38100Y11430
X5080Y52070
X41910Y5080
X27686Y53213
X1270Y7620
X27940Y46990
X17780Y22860
X14224Y17780
X6731Y36703
X13970Y33020
X14732Y35560
X12700Y29210
X11430Y46228
X8890Y52070
X23749Y16002
X7620Y46355
X1270Y35560
X20320Y20320
X21590Y20320
X24003Y22606
X17145Y24892
X3810Y3810
X3810Y7620
X1143Y3556
X21590Y3810
X44450Y5080
X39370Y5080
X17399Y36449
X16891Y41783
X22860Y43180
X20955Y43180
X45466Y15113
X25146Y53213
X24638Y29210
X33020Y40640
X40640Y41148
X44450Y20320
X49530Y20320
X49657Y32258
X86233Y33655
X86995Y23749
X88138Y23749
X86995Y20320
X92202Y23622
X98044Y23622
X99060Y23622
X98044Y16256
X99060Y10160
X93345Y7874
X78740Y20320
X78867Y25781
X83947Y20320
X84963Y25781
X92102Y26322
X78232Y27051
X98425Y35306
X57150Y25400
X53340Y25400
X49530Y17780
X44450Y17780
X59690Y20320
X67310Y20320
X77470Y20320
X77470Y17780
X67310Y17780
X59690Y17780
X44450Y38100
X71882Y27051
X74041Y27051
X17018Y46355
X21590Y38735
X41910Y17272
X27940Y16510
X29197Y9131
X44437Y9131
X7874Y44323
X7937Y38926
X4953Y5969
X889Y29083
X2413Y45593
X3937Y45593
X3810Y40132
X4064Y38481
X2286Y38227
X4699Y42291
X8001Y40386
X8001Y42672
X33020Y13970
X22860Y44450
X66802Y26438
X35560Y44450
X36957Y26543
X88900Y31750
X77089Y37735
X60960Y36830
X74803Y36515
X87630Y54610
X93599Y29210
X94158Y21590
X22606Y54610
X88900Y53340
X94488Y29210
X94882Y22225
X20320Y53340
X55880Y15240
X68580Y27113
X68580Y29613
X93150Y35814
X74930Y22860
X76073Y27051
X90424Y40229
X73025Y27113
X78740Y33782
X73025Y22860
X74921Y33663
X95250Y8255
X96266Y12192
X26543Y41910
X91321Y37719
X18288Y36449
X92583Y17272
X85686Y19050
X23140Y18210
X57658Y15240
X56642Y15240
X54610Y27813
X52070Y15240
X53340Y15240
X56007Y28269
X54610Y15240
X56817Y28651
X96585Y27203
X96026Y26684
X96647Y20828
X97158Y26698
X97155Y21590
X75311Y34404
X76200Y44806
X89967Y45589
X90178Y46351
X90647Y46959
X91059Y47625
X95250Y26670
X96955Y28575
X119126Y44450
X197370Y39670
X117856Y43815
X122936Y35560
X199009Y36449
X140462Y46990
X175006Y43180
X138176Y45720
X160061Y40726
X135636Y45720
X175641Y44120
X108966Y24269
X111506Y26809
X111506Y21729
X108966Y22364
X108966Y26174
X123698Y20574
X144526Y11430
X111506Y52070
X148336Y5080
X134112Y53213
X107696Y7620
X134366Y46990
X124206Y22860
X120650Y17780
X113157Y36703
X120396Y33020
X121158Y35560
X119126Y29210
X56007Y87197
X117856Y46228
X115316Y52070
X130175Y16002
X114046Y46355
X107696Y35560
X126746Y20320
X128016Y20320
X130429Y22606
X123571Y24892
X110236Y3810
X110236Y7620
X107569Y3556
X128016Y3810
X150876Y5080
X145796Y5080
X123825Y36449
X123317Y41783
X129286Y43180
X127381Y43180
X151892Y15113
X131572Y53213
X131064Y29210
X139446Y40640
X147066Y41148
X150876Y20320
X155956Y20320
X156083Y32258
X192659Y33655
X193421Y23749
X194564Y23749
X193421Y20320
X198628Y23622
X204470Y23622
X205486Y23622
X204470Y16256
X205486Y10160
X199771Y7874
X185166Y20320
X185293Y25781
X190373Y20320
X191389Y25781
X198528Y26322
X184658Y27051
X204851Y35306
X163576Y25400
X159766Y25400
X155956Y17780
X150876Y17780
X166116Y20320
X173736Y20320
X183896Y20320
X183896Y17780
X173736Y17780
X166116Y17780
X150876Y38100
X178308Y27051
X180467Y27051
X123444Y46355
X128016Y38735
X148336Y17272
X134366Y16510
X135623Y9131
X150863Y9131
X114300Y44323
X114363Y38926
X111379Y5969
X107315Y29083
X108839Y45593
X110363Y45593
X110236Y40132
X110490Y38481
X108712Y38227
X111125Y42291
X114427Y40386
X114427Y42672
X139446Y13970
X129286Y44450
X173228Y26438
X141986Y44450
X143383Y26543
X195326Y31750
X183515Y37735
X167386Y36830
X181229Y36515
X194056Y54610
X200025Y29210
X200584Y21590
X129032Y54610
X195326Y53340
X200914Y29210
X201308Y22225
X126746Y53340
X162941Y29464
X162306Y15240
X175006Y27113
X175006Y29613
X199576Y35814
X181356Y22860
X182499Y27051
X196850Y40229
X179451Y27113
X185166Y33782
X179451Y22860
X181347Y33663
X201676Y8255
X202692Y12192
X132969Y41910
X197747Y37719
X124714Y36449
X199009Y17272
X192112Y19050
X129566Y18210
X164084Y15240
X163068Y15240
X161036Y27813
X158496Y15240
X159766Y15240
X162433Y28269
X161036Y15240
X163243Y28651
X203011Y27203
X202452Y26684
X203073Y20828
M30